<svg width="60" height="60" viewBox="0 0 60 60" fill="none" xmlns="http://www.w3.org/2000/svg">
<rect width="60" height="60" rx="8" fill="white"/>
<g clip-path="url(#clip0_25_6188)">
<path d="M30.0001 17.4062L32.3078 22.0819L37.4677 22.8318L33.7339 26.4712L34.6154 31.6103L30.0001 29.1839L25.385 31.6103L26.2664 26.4712L22.5327 22.8318L27.6926 22.0819L30.0001 17.4062Z" stroke="#309689" stroke-width="2" stroke-miterlimit="10"/>
<path d="M30.0001 39.2512C37.7284 39.2512 43.9934 32.9862 43.9934 25.2579C43.9934 17.5296 37.7284 11.2646 30.0001 11.2646C22.2718 11.2646 16.0068 17.5296 16.0068 25.2579C16.0068 32.9862 22.2718 39.2512 30.0001 39.2512Z" stroke="#309689" stroke-width="2" stroke-miterlimit="10"/>
<path d="M26.0603 38.6878L20.0364 46.979L18.9468 40.6268L12.5688 41.5536L18.5563 33.3125" stroke="#309689" stroke-width="2" stroke-miterlimit="10"/>
<path d="M33.9399 38.6878L39.9639 46.979L41.0534 40.6268L47.4314 41.5536L41.4438 33.3125" stroke="#309689" stroke-width="2" stroke-miterlimit="10"/>
</g>
<defs>
<clipPath id="clip0_25_6188">
<rect width="40" height="40" fill="white" transform="translate(10 10)"/>
</clipPath>
</defs>
</svg>
