<svg width="60" height="60" viewBox="0 0 60 60" fill="none" xmlns="http://www.w3.org/2000/svg">
<rect width="60" height="60" rx="8" fill="white"/>
<g clip-path="url(#clip0_25_6198)">
<mask id="mask0_25_6198" style="mask-type:luminance" maskUnits="userSpaceOnUse" x="10" y="10" width="40" height="40">
<path d="M50 10H10V50H50V10Z" fill="white"/>
</mask>
<g mask="url(#mask0_25_6198)">
<mask id="mask1_25_6198" style="mask-type:luminance" maskUnits="userSpaceOnUse" x="10" y="10" width="40" height="40">
<path d="M10 10H50V50H10V10Z" fill="white"/>
</mask>
<g mask="url(#mask1_25_6198)">
<path d="M44.2881 21.8057H37.1787C35.4529 21.8057 34.0537 20.4065 34.0537 18.6807V11.5713" stroke="#309689" stroke-width="2" stroke-miterlimit="10" stroke-linejoin="round"/>
<path d="M44.2882 21.8055V45.3125C44.2882 47.0384 42.8891 48.4375 41.1632 48.4375H18.8281C17.1023 48.4375 15.7031 47.0384 15.7031 45.3125V14.6875C15.7031 12.9616 17.1023 11.5625 18.8281 11.5625H34.0973L44.2882 21.8055Z" stroke="#309689" stroke-width="2" stroke-miterlimit="10"/>
<path d="M20.4688 42.1875H39.6094" stroke="#309689" stroke-width="2" stroke-miterlimit="10"/>
<path d="M22.0312 37.4219C22.0312 34.4016 24.4797 31.9531 27.5 31.9531C30.5203 31.9531 32.9687 34.4016 32.9687 37.4219" stroke="#309689" stroke-width="2" stroke-miterlimit="10" stroke-linejoin="round"/>
<path d="M24.4531 28.8281C24.4531 27.1022 25.8523 25.7031 27.5781 25.7031C29.304 25.7031 30.7031 27.1022 30.7031 28.8281C30.7031 30.5541 29.304 31.9531 27.5781 31.9531C25.8523 31.9531 24.4531 30.5541 24.4531 28.8281Z" stroke="#309689" stroke-width="2" stroke-miterlimit="10" stroke-linecap="round" stroke-linejoin="round"/>
</g>
</g>
</g>
<defs>
<clipPath id="clip0_25_6198">
<rect width="40" height="40" fill="white" transform="translate(10 10)"/>
</clipPath>
</defs>
</svg>
