<svg width="40" height="30" viewBox="0 0 40 30" fill="none" xmlns="http://www.w3.org/2000/svg">
<path d="M36.715 0L40 2.79503C37.8959 4.57557 36.1782 6.294 34.847 7.95031C33.5588 9.56522 32.7429 10.7867 32.3994 11.6149C32.0558 12.4431 31.7338 13.4369 31.4332 14.5963L31.6908 14.9689C34.5679 14.9689 36.672 15.5694 38.0032 16.7702C39.3344 17.971 40 19.8344 40 22.3602C40 24.3064 39.27 26.0663 37.81 27.6398C36.3929 29.2133 34.6108 30 32.4638 30C30.0161 30 27.9764 29.3375 26.3446 28.0124C24.7128 26.6874 23.8969 24.5549 23.8969 21.6149C23.8969 17.7226 25.1422 13.706 27.6328 9.56522C30.1664 5.38302 33.1938 2.19462 36.715 0ZM12.818 0L16.1031 2.79503C13.9989 4.57557 12.3027 6.27329 11.0145 7.8882C9.72625 9.50311 8.88889 10.7453 8.50241 11.6149C8.15888 12.4845 7.83682 13.4783 7.53623 14.5963L7.79388 14.9689C10.671 14.9689 12.7751 15.5694 14.1063 16.7702C15.4375 17.971 16.1031 19.8344 16.1031 22.3602C16.1031 24.3064 15.3731 26.0663 13.913 27.6398C12.496 29.2133 10.7139 30 8.56683 30C6.11916 30 4.07944 29.3375 2.44766 28.0124C0.815888 26.6874 0 24.5549 0 21.6149C0 17.7226 1.2453 13.706 3.73591 9.56522C6.26946 5.38302 9.29683 2.19462 12.818 0Z" fill="#309689"/>
</svg>
