<svg width="40" height="40" viewBox="0 0 40 40" fill="none" xmlns="http://www.w3.org/2000/svg">
<path d="M20 8.93667L24.125 3.89333C24.125 3.89333 31.2 4.04333 38.2433 7.31667C36.44 10.0433 32.8583 11.38 32.8583 11.38C32.615 8.98167 30.935 8.39667 25.6017 8.39667L20 40L14.365 8.39C9.065 8.39 7.385 8.98 7.14 11.3767C7.14 11.3767 3.56333 10.0517 1.75833 7.32667C8.8 4.05167 15.875 3.9 15.875 3.9L20 8.93667ZM20 8.93667L19.9933 8.94H20V8.93667ZM20 2.43833C25.6917 2.38833 32.21 3.31833 38.88 6.23833C39.7717 4.625 40 3.91333 40 3.91333C32.7083 1.02 25.88 0.025 20 0C14.12 0.025 7.29167 1.01667 0 3.915C0 3.915 0.325 4.79 1.12 6.24167C7.79 3.315 14.3083 2.39167 20 2.43333V2.43833Z" fill="white"/>
</svg>
