<svg width="26" height="30" viewBox="0 0 26 30" fill="none" xmlns="http://www.w3.org/2000/svg">
<path d="M21.0618 28.8C19.4285 30.3833 17.6451 30.1333 15.9285 29.3833C14.1118 28.6167 12.4451 28.5833 10.5285 29.3833C8.12846 30.4167 6.8618 30.1167 5.42846 28.8C-2.70487 20.4167 -1.50487 7.65 7.72846 7.18333C9.97846 7.3 11.5451 8.41667 12.8618 8.51667C14.8285 8.11667 16.7118 6.96667 18.8118 7.11667C21.3285 7.31667 23.2285 8.31667 24.4785 10.1167C19.2785 13.2333 20.5118 20.0833 25.2785 22C24.3285 24.5 23.0951 26.9833 21.0451 28.8167L21.0618 28.8ZM12.6951 7.08333C12.4451 3.36667 15.4618 0.3 18.9285 0C19.4118 4.3 15.0285 7.5 12.6951 7.08333Z" fill="white"/>
</svg>
