<svg width="60" height="60" viewBox="0 0 60 60" fill="none" xmlns="http://www.w3.org/2000/svg">
<rect width="60" height="60" rx="8" fill="white"/>
<g clip-path="url(#clip0_25_6222)">
<path d="M34.969 40.9312L30.0271 43.7551L25.0853 40.9312C20.3117 38.2034 17.3657 33.1269 17.3657 27.6289V14.2188L30.0272 11.1968L42.6887 14.2188V27.629C42.6886 33.1269 39.7426 38.2034 34.969 40.9312Z" stroke="#309689" stroke-width="2" stroke-miterlimit="10"/>
<path d="M25.1292 40.9748L19.6871 47.9295L17.0418 43.3917L12.0391 41.7909L18.6798 33.7188" stroke="#309689" stroke-width="2" stroke-miterlimit="10"/>
<path d="M34.8994 41.0011L40.3153 47.9297L42.9605 43.3919L47.9633 41.7911L41.4034 33.7998" stroke="#309689" stroke-width="2" stroke-miterlimit="10"/>
<path d="M30.0274 19.6851L32.4382 22.9858L36.3224 24.2587L33.9282 27.5715L33.9179 31.6589L30.0274 30.4055L26.1368 31.6589L26.1266 27.5715L23.7324 24.2587L27.6166 22.9858L30.0274 19.6851Z" stroke="#309689" stroke-width="2" stroke-miterlimit="10"/>
</g>
<defs>
<clipPath id="clip0_25_6222">
<rect width="40" height="40" fill="white" transform="translate(10 10)"/>
</clipPath>
</defs>
</svg>
